{
    "asset" : {
        "generator" : "Khronos glTF Blender I/O v1.8.19",
        "version" : "2.0"
    },
    "scene" : 0,
    "scenes" : [
        {
            "name" : "Scene",
            "nodes" : [
                0
            ]
        }
    ],
    "nodes" : [
        {
            "mesh" : 0,
            "name" : "\u5145\u7535\u686910"
        }
    ],
    "materials" : [
        {
            "doubleSided" : true,
            "name" : "Mat3d66-14110608-83-47209",
            "pbrMetallicRoughness" : {
                "baseColorTexture" : {
                    "index" : 0
                },
                "metallicFactor" : 0,
                "roughnessFactor" : 0.5
            }
        },
        {
            "doubleSided" : true,
            "name" : "Mat3d66-14110608-84-91432",
            "pbrMetallicRoughness" : {
                "baseColorFactor" : [
                    0.800000011920929,
                    0,
                    0,
                    1
                ],
                "metallicFactor" : 0,
                "roughnessFactor" : 0.5
            }
        },
        {
            "doubleSided" : true,
            "name" : "Mat3d66-14110608-85-19704",
            "pbrMetallicRoughness" : {
                "baseColorFactor" : [
                    0.22745099663734436,
                    0.22745099663734436,
                    0.22745099663734436,
                    1
                ],
                "metallicFactor" : 0,
                "roughnessFactor" : 0.5
            }
        },
        {
            "doubleSided" : true,
            "name" : "Mat3d66-14110608-86-93140",
            "pbrMetallicRoughness" : {
                "baseColorFactor" : [
                    0.11764699965715408,
                    0.11764699965715408,
                    0.11764699965715408,
                    1
                ],
                "metallicFactor" : 0,
                "roughnessFactor" : 0.5
            }
        },
        {
            "doubleSided" : true,
            "name" : "Mat3d66-14110608-85-19704.001",
            "pbrMetallicRoughness" : {
                "baseColorFactor" : [
                    0.22745099663734436,
                    0.22745099663734436,
                    0.22745099663734436,
                    1
                ],
                "metallicFactor" : 0,
                "roughnessFactor" : 0.5
            }
        },
        {
            "doubleSided" : true,
            "name" : "Metal_Aluminum_Anodized",
            "pbrMetallicRoughness" : {
                "baseColorTexture" : {
                    "index" : 1
                },
                "metallicFactor" : 0,
                "roughnessFactor" : 0.5
            }
        },
        {
            "doubleSided" : true,
            "name" : "skp_front_default",
            "pbrMetallicRoughness" : {
                "metallicFactor" : 0,
                "roughnessFactor" : 0.5
            }
        },
        {
            "doubleSided" : true,
            "name" : "Mat3d66-14110608-86-93140.001",
            "pbrMetallicRoughness" : {
                "baseColorFactor" : [
                    0.11764699965715408,
                    0.11764699965715408,
                    0.11764699965715408,
                    1
                ],
                "metallicFactor" : 0,
                "roughnessFactor" : 0.5
            }
        },
        {
            "doubleSided" : true,
            "name" : "Mat3d66-14110608-88-29082",
            "pbrMetallicRoughness" : {
                "baseColorFactor" : [
                    0.5764709711074829,
                    0.6392160058021545,
                    0.7294120192527771,
                    1
                ],
                "metallicFactor" : 0,
                "roughnessFactor" : 0.5
            }
        },
        {
            "doubleSided" : true,
            "name" : "Mat3d66-14110608-89-51045",
            "pbrMetallicRoughness" : {
                "metallicFactor" : 0,
                "roughnessFactor" : 0.5
            }
        },
        {
            "doubleSided" : true,
            "name" : "Mat3d66-14110608-89-51045.001",
            "pbrMetallicRoughness" : {
                "metallicFactor" : 0,
                "roughnessFactor" : 0.5
            }
        },
        {
            "doubleSided" : true,
            "name" : "skp_front_default.001",
            "pbrMetallicRoughness" : {
                "metallicFactor" : 0,
                "roughnessFactor" : 0.5
            }
        },
        {
            "doubleSided" : true,
            "name" : "Mat3d66-14110608-88-29082.001",
            "pbrMetallicRoughness" : {
                "baseColorFactor" : [
                    0.5764709711074829,
                    0.6392160058021545,
                    0.7294120192527771,
                    1
                ],
                "metallicFactor" : 0,
                "roughnessFactor" : 0.5
            }
        },
        {
            "doubleSided" : true,
            "name" : "Mat3d66-14110608-91-35585",
            "pbrMetallicRoughness" : {
                "baseColorTexture" : {
                    "index" : 2
                },
                "metallicFactor" : 0,
                "roughnessFactor" : 0.5
            }
        },
        {
            "doubleSided" : true,
            "name" : "Mat3d66-14110608-92-62847",
            "pbrMetallicRoughness" : {
                "baseColorTexture" : {
                    "index" : 3
                },
                "metallicFactor" : 0,
                "roughnessFactor" : 0.5
            }
        },
        {
            "doubleSided" : true,
            "name" : "Mat3d66-14110608-93-79402",
            "pbrMetallicRoughness" : {
                "baseColorTexture" : {
                    "index" : 4
                },
                "metallicFactor" : 0,
                "roughnessFactor" : 0.5
            }
        },
        {
            "doubleSided" : true,
            "name" : "Mat3d66-14110608-94-44012",
            "pbrMetallicRoughness" : {
                "baseColorTexture" : {
                    "index" : 5
                },
                "metallicFactor" : 0,
                "roughnessFactor" : 0.5
            }
        },
        {
            "doubleSided" : true,
            "name" : "Mat3d66-14110608-95-55042",
            "pbrMetallicRoughness" : {
                "baseColorTexture" : {
                    "index" : 6
                },
                "metallicFactor" : 0,
                "roughnessFactor" : 0.5
            }
        },
        {
            "doubleSided" : true,
            "name" : "Mat3d66-14110608-96-23688",
            "pbrMetallicRoughness" : {
                "baseColorTexture" : {
                    "index" : 7
                },
                "metallicFactor" : 0,
                "roughnessFactor" : 0.5
            }
        },
        {
            "doubleSided" : true,
            "name" : "Mat3d66-14110608-97-74737",
            "pbrMetallicRoughness" : {
                "baseColorTexture" : {
                    "index" : 8
                },
                "metallicFactor" : 0,
                "roughnessFactor" : 0.5
            }
        },
        {
            "doubleSided" : true,
            "name" : "Mat3d66-14110608-98-35472",
            "pbrMetallicRoughness" : {
                "baseColorTexture" : {
                    "index" : 9
                },
                "metallicFactor" : 0,
                "roughnessFactor" : 0.5
            }
        }
    ],
    "meshes" : [
        {
            "name" : "Obj3d66-14110608-1446-220",
            "primitives" : [
                {
                    "attributes" : {
                        "POSITION" : 0,
                        "NORMAL" : 1,
                        "TEXCOORD_0" : 2,
                        "TEXCOORD_1" : 3
                    },
                    "indices" : 4,
                    "material" : 0
                },
                {
                    "attributes" : {
                        "POSITION" : 5,
                        "NORMAL" : 6,
                        "TEXCOORD_0" : 7,
                        "TEXCOORD_1" : 8
                    },
                    "indices" : 9,
                    "material" : 1
                },
                {
                    "attributes" : {
                        "POSITION" : 10,
                        "NORMAL" : 11,
                        "TEXCOORD_0" : 12,
                        "TEXCOORD_1" : 13
                    },
                    "indices" : 14,
                    "material" : 2
                },
                {
                    "attributes" : {
                        "POSITION" : 15,
                        "NORMAL" : 16,
                        "TEXCOORD_0" : 17,
                        "TEXCOORD_1" : 18
                    },
                    "indices" : 19,
                    "material" : 3
                },
                {
                    "attributes" : {
                        "POSITION" : 20,
                        "NORMAL" : 21,
                        "TEXCOORD_0" : 22,
                        "TEXCOORD_1" : 23
                    },
                    "indices" : 24,
                    "material" : 4
                },
                {
                    "attributes" : {
                        "POSITION" : 25,
                        "NORMAL" : 26,
                        "TEXCOORD_0" : 27,
                        "TEXCOORD_1" : 28
                    },
                    "indices" : 29,
                    "material" : 5
                },
                {
                    "attributes" : {
                        "POSITION" : 30,
                        "NORMAL" : 31,
                        "TEXCOORD_0" : 32,
                        "TEXCOORD_1" : 33
                    },
                    "indices" : 34,
                    "material" : 6
                },
                {
                    "attributes" : {
                        "POSITION" : 35,
                        "NORMAL" : 36,
                        "TEXCOORD_0" : 37,
                        "TEXCOORD_1" : 38
                    },
                    "indices" : 39,
                    "material" : 7
                },
                {
                    "attributes" : {
                        "POSITION" : 40,
                        "NORMAL" : 41,
                        "TEXCOORD_0" : 42,
                        "TEXCOORD_1" : 43
                    },
                    "indices" : 44,
                    "material" : 8
                },
                {
                    "attributes" : {
                        "POSITION" : 45,
                        "NORMAL" : 46,
                        "TEXCOORD_0" : 47,
                        "TEXCOORD_1" : 48
                    },
                    "indices" : 49,
                    "material" : 9
                },
                {
                    "attributes" : {
                        "POSITION" : 50,
                        "NORMAL" : 51,
                        "TEXCOORD_0" : 52,
                        "TEXCOORD_1" : 53
                    },
                    "indices" : 54,
                    "material" : 10
                },
                {
                    "attributes" : {
                        "POSITION" : 55,
                        "NORMAL" : 56,
                        "TEXCOORD_0" : 57,
                        "TEXCOORD_1" : 58
                    },
                    "indices" : 59,
                    "material" : 11
                },
                {
                    "attributes" : {
                        "POSITION" : 60,
                        "NORMAL" : 61,
                        "TEXCOORD_0" : 62,
                        "TEXCOORD_1" : 63
                    },
                    "indices" : 64,
                    "material" : 12
                },
                {
                    "attributes" : {
                        "POSITION" : 65,
                        "NORMAL" : 66,
                        "TEXCOORD_0" : 67,
                        "TEXCOORD_1" : 68
                    },
                    "indices" : 69,
                    "material" : 13
                },
                {
                    "attributes" : {
                        "POSITION" : 70,
                        "NORMAL" : 71,
                        "TEXCOORD_0" : 72,
                        "TEXCOORD_1" : 73
                    },
                    "indices" : 69,
                    "material" : 14
                },
                {
                    "attributes" : {
                        "POSITION" : 74,
                        "NORMAL" : 75,
                        "TEXCOORD_0" : 76,
                        "TEXCOORD_1" : 77
                    },
                    "indices" : 69,
                    "material" : 15
                },
                {
                    "attributes" : {
                        "POSITION" : 78,
                        "NORMAL" : 79,
                        "TEXCOORD_0" : 80,
                        "TEXCOORD_1" : 81
                    },
                    "indices" : 69,
                    "material" : 16
                },
                {
                    "attributes" : {
                        "POSITION" : 82,
                        "NORMAL" : 83,
                        "TEXCOORD_0" : 84,
                        "TEXCOORD_1" : 85
                    },
                    "indices" : 69,
                    "material" : 17
                },
                {
                    "attributes" : {
                        "POSITION" : 86,
                        "NORMAL" : 87,
                        "TEXCOORD_0" : 88,
                        "TEXCOORD_1" : 89
                    },
                    "indices" : 69,
                    "material" : 18
                },
                {
                    "attributes" : {
                        "POSITION" : 90,
                        "NORMAL" : 91,
                        "TEXCOORD_0" : 92,
                        "TEXCOORD_1" : 93
                    },
                    "indices" : 69,
                    "material" : 19
                },
                {
                    "attributes" : {
                        "POSITION" : 94,
                        "NORMAL" : 95,
                        "TEXCOORD_0" : 96,
                        "TEXCOORD_1" : 97
                    },
                    "indices" : 69,
                    "material" : 20
                }
            ]
        }
    ],
    "textures" : [
        {
            "sampler" : 0,
            "source" : 0
        },
        {
            "sampler" : 0,
            "source" : 1
        },
        {
            "sampler" : 0,
            "source" : 2
        },
        {
            "sampler" : 0,
            "source" : 3
        },
        {
            "sampler" : 0,
            "source" : 4
        },
        {
            "sampler" : 0,
            "source" : 5
        },
        {
            "sampler" : 0,
            "source" : 6
        },
        {
            "sampler" : 0,
            "source" : 7
        },
        {
            "sampler" : 0,
            "source" : 8
        },
        {
            "sampler" : 0,
            "source" : 9
        }
    ],
    "images" : [
        {
            "bufferView" : 5,
            "mimeType" : "image/jpeg",
            "name" : "3d66Model-14110608-files-9"
        },
        {
            "bufferView" : 31,
            "mimeType" : "image/jpeg",
            "name" : "3d66Model-14110608-files-33"
        },
        {
            "bufferView" : 72,
            "mimeType" : "image/jpeg",
            "name" : "3d66Model-14110608-files-42"
        },
        {
            "bufferView" : 77,
            "mimeType" : "image/jpeg",
            "name" : "3d66Model-14110608-files-41"
        },
        {
            "bufferView" : 82,
            "mimeType" : "image/jpeg",
            "name" : "3d66Model-14110608-files-38"
        },
        {
            "bufferView" : 87,
            "mimeType" : "image/jpeg",
            "name" : "3d66Model-14110608-files-40"
        },
        {
            "bufferView" : 92,
            "mimeType" : "image/jpeg",
            "name" : "3d66Model-14110608-files-37"
        },
        {
            "bufferView" : 97,
            "mimeType" : "image/jpeg",
            "name" : "3d66Model-14110608-files-36"
        },
        {
            "bufferView" : 102,
            "mimeType" : "image/jpeg",
            "name" : "3d66Model-14110608-files-39"
        },
        {
            "bufferView" : 107,
            "mimeType" : "image/jpeg",
            "name" : "3d66Model-14110608-files-35"
        }
    ],
    "accessors" : [
        {
            "bufferView" : 0,
            "componentType" : 5126,
            "count" : 1312,
            "max" : [
                0.6615784764289856,
                0.17856964468955994,
                0.21629667282104492
            ],
            "min" : [
                -0.6615784764289856,
                4.284083843231201e-08,
                -0.21629691123962402
            ],
            "type" : "VEC3"
        },
        {
            "bufferView" : 1,
            "componentType" : 5126,
            "count" : 1312,
            "type" : "VEC3"
        },
        {
            "bufferView" : 2,
            "componentType" : 5126,
            "count" : 1312,
            "type" : "VEC2"
        },
        {
            "bufferView" : 3,
            "componentType" : 5126,
            "count" : 1312,
            "type" : "VEC2"
        },
        {
            "bufferView" : 4,
            "componentType" : 5123,
            "count" : 2100,
            "type" : "SCALAR"
        },
        {
            "bufferView" : 6,
            "componentType" : 5126,
            "count" : 1036,
            "max" : [
                0.37030935287475586,
                1.8392677307128906,
                0.1314716339111328
            ],
            "min" : [
                -0.3703085780143738,
                0.6069830060005188,
                -0.13147211074829102
            ],
            "type" : "VEC3"
        },
        {
            "bufferView" : 7,
            "componentType" : 5126,
            "count" : 1036,
            "type" : "VEC3"
        },
        {
            "bufferView" : 8,
            "componentType" : 5126,
            "count" : 1036,
            "type" : "VEC2"
        },
        {
            "bufferView" : 9,
            "componentType" : 5126,
            "count" : 1036,
            "type" : "VEC2"
        },
        {
            "bufferView" : 10,
            "componentType" : 5123,
            "count" : 4872,
            "type" : "SCALAR"
        },
        {
            "bufferView" : 11,
            "componentType" : 5126,
            "count" : 517,
            "max" : [
                0.31317371129989624,
                1.6772176027297974,
                0.02973651885986328
            ],
            "min" : [
                0.20998245477676392,
                1.4831130504608154,
                -0.028698444366455078
            ],
            "type" : "VEC3"
        },
        {
            "bufferView" : 12,
            "componentType" : 5126,
            "count" : 517,
            "type" : "VEC3"
        },
        {
            "bufferView" : 13,
            "componentType" : 5126,
            "count" : 517,
            "type" : "VEC2"
        },
        {
            "bufferView" : 14,
            "componentType" : 5126,
            "count" : 517,
            "type" : "VEC2"
        },
        {
            "bufferView" : 15,
            "componentType" : 5123,
            "count" : 1467,
            "type" : "SCALAR"
        },
        {
            "bufferView" : 16,
            "componentType" : 5126,
            "count" : 216,
            "max" : [
                -0.2109718918800354,
                1.7900968790054321,
                0.05415654182434082
            ],
            "min" : [
                -0.3236265778541565,
                1.6943020820617676,
                -0.053133487701416016
            ],
            "type" : "VEC3"
        },
        {
            "bufferView" : 17,
            "componentType" : 5126,
            "count" : 216,
            "type" : "VEC3"
        },
        {
            "bufferView" : 18,
            "componentType" : 5126,
            "count" : 216,
            "type" : "VEC2"
        },
        {
            "bufferView" : 19,
            "componentType" : 5126,
            "count" : 216,
            "type" : "VEC2"
        },
        {
            "bufferView" : 20,
            "componentType" : 5123,
            "count" : 1140,
            "type" : "SCALAR"
        },
        {
            "bufferView" : 21,
            "componentType" : 5126,
            "count" : 648,
            "max" : [
                0.25339293479919434,
                1.7033179998397827,
                0.01876068115234375
            ],
            "min" : [
                -0.28724151849746704,
                0.6834080815315247,
                -0.017722606658935547
            ],
            "type" : "VEC3"
        },
        {
            "bufferView" : 22,
            "componentType" : 5126,
            "count" : 648,
            "type" : "VEC3"
        },
        {
            "bufferView" : 23,
            "componentType" : 5126,
            "count" : 648,
            "type" : "VEC2"
        },
        {
            "bufferView" : 24,
            "componentType" : 5126,
            "count" : 648,
            "type" : "VEC2"
        },
        {
            "bufferView" : 25,
            "componentType" : 5123,
            "count" : 3744,
            "type" : "SCALAR"
        },
        {
            "bufferView" : 26,
            "componentType" : 5126,
            "count" : 524,
            "max" : [
                0.2569069266319275,
                1.525020956993103,
                0.022107362747192383
            ],
            "min" : [
                0.21157151460647583,
                1.4688959121704102,
                -0.02106928825378418
            ],
            "type" : "VEC3"
        },
        {
            "bufferView" : 27,
            "componentType" : 5126,
            "count" : 524,
            "type" : "VEC3"
        },
        {
            "bufferView" : 28,
            "componentType" : 5126,
            "count" : 524,
            "type" : "VEC2"
        },
        {
            "bufferView" : 29,
            "componentType" : 5126,
            "count" : 524,
            "type" : "VEC2"
        },
        {
            "bufferView" : 30,
            "componentType" : 5123,
            "count" : 864,
            "type" : "SCALAR"
        },
        {
            "bufferView" : 32,
            "componentType" : 5126,
            "count" : 120,
            "max" : [
                0.2558279037475586,
                1.7033179998397827,
                0.02107977867126465
            ],
            "min" : [
                -0.28724151849746704,
                1.4688959121704102,
                -0.020041465759277344
            ],
            "type" : "VEC3"
        },
        {
            "bufferView" : 33,
            "componentType" : 5126,
            "count" : 120,
            "type" : "VEC3"
        },
        {
            "bufferView" : 34,
            "componentType" : 5126,
            "count" : 120,
            "type" : "VEC2"
        },
        {
            "bufferView" : 35,
            "componentType" : 5126,
            "count" : 120,
            "type" : "VEC2"
        },
        {
            "bufferView" : 36,
            "componentType" : 5123,
            "count" : 342,
            "type" : "SCALAR"
        },
        {
            "bufferView" : 37,
            "componentType" : 5126,
            "count" : 96,
            "max" : [
                0.2505073547363281,
                1.6335618495941162,
                0.02102828025817871
            ],
            "min" : [
                0.2180885672569275,
                1.525020956993103,
                -0.019989490509033203
            ],
            "type" : "VEC3"
        },
        {
            "bufferView" : 38,
            "componentType" : 5126,
            "count" : 96,
            "type" : "VEC3"
        },
        {
            "bufferView" : 39,
            "componentType" : 5126,
            "count" : 96,
            "type" : "VEC2"
        },
        {
            "bufferView" : 40,
            "componentType" : 5126,
            "count" : 96,
            "type" : "VEC2"
        },
        {
            "bufferView" : 41,
            "componentType" : 5123,
            "count" : 354,
            "type" : "SCALAR"
        },
        {
            "bufferView" : 42,
            "componentType" : 5126,
            "count" : 128,
            "max" : [
                0.5670198202133179,
                1.6280364990234375,
                0.08891463279724121
            ],
            "min" : [
                -0.5670185685157776,
                0.22321243584156036,
                -0.08891606330871582
            ],
            "type" : "VEC3"
        },
        {
            "bufferView" : 43,
            "componentType" : 5126,
            "count" : 128,
            "type" : "VEC3"
        },
        {
            "bufferView" : 44,
            "componentType" : 5126,
            "count" : 128,
            "type" : "VEC2"
        },
        {
            "bufferView" : 45,
            "componentType" : 5126,
            "count" : 128,
            "type" : "VEC2"
        },
        {
            "bufferView" : 46,
            "componentType" : 5123,
            "count" : 348,
            "type" : "SCALAR"
        },
        {
            "bufferView" : 47,
            "componentType" : 5126,
            "count" : 1306,
            "max" : [
                0.5926494002342224,
                1.64284086227417,
                0.10602569580078125
            ],
            "min" : [
                -0.5926480889320374,
                0.22321243584156036,
                -0.10602593421936035
            ],
            "type" : "VEC3"
        },
        {
            "bufferView" : 48,
            "componentType" : 5126,
            "count" : 1306,
            "type" : "VEC3"
        },
        {
            "bufferView" : 49,
            "componentType" : 5126,
            "count" : 1306,
            "type" : "VEC2"
        },
        {
            "bufferView" : 50,
            "componentType" : 5126,
            "count" : 1306,
            "type" : "VEC2"
        },
        {
            "bufferView" : 51,
            "componentType" : 5123,
            "count" : 5676,
            "type" : "SCALAR"
        },
        {
            "bufferView" : 52,
            "componentType" : 5126,
            "count" : 1411,
            "max" : [
                0.585933268070221,
                2.1785497665405273,
                0.1314716339111328
            ],
            "min" : [
                -0.5859305262565613,
                0.17857004702091217,
                -0.13147211074829102
            ],
            "type" : "VEC3"
        },
        {
            "bufferView" : 53,
            "componentType" : 5126,
            "count" : 1411,
            "type" : "VEC3"
        },
        {
            "bufferView" : 54,
            "componentType" : 5126,
            "count" : 1411,
            "type" : "VEC2"
        },
        {
            "bufferView" : 55,
            "componentType" : 5126,
            "count" : 1411,
            "type" : "VEC2"
        },
        {
            "bufferView" : 56,
            "componentType" : 5123,
            "count" : 5595,
            "type" : "SCALAR"
        },
        {
            "bufferView" : 57,
            "componentType" : 5126,
            "count" : 293,
            "max" : [
                0.47812169790267944,
                2.1139137744903564,
                0.1314716339111328
            ],
            "min" : [
                -0.4781190752983093,
                0.17857004702091217,
                -0.13147211074829102
            ],
            "type" : "VEC3"
        },
        {
            "bufferView" : 58,
            "componentType" : 5126,
            "count" : 293,
            "type" : "VEC3"
        },
        {
            "bufferView" : 59,
            "componentType" : 5126,
            "count" : 293,
            "type" : "VEC2"
        },
        {
            "bufferView" : 60,
            "componentType" : 5126,
            "count" : 293,
            "type" : "VEC2"
        },
        {
            "bufferView" : 61,
            "componentType" : 5123,
            "count" : 747,
            "type" : "SCALAR"
        },
        {
            "bufferView" : 62,
            "componentType" : 5126,
            "count" : 56,
            "max" : [
                0.5575656294822693,
                0.22321243584156036,
                0.07956385612487793
            ],
            "min" : [
                -0.5575630068778992,
                0.17857004702091217,
                -0.07924985885620117
            ],
            "type" : "VEC3"
        },
        {
            "bufferView" : 63,
            "componentType" : 5126,
            "count" : 56,
            "type" : "VEC3"
        },
        {
            "bufferView" : 64,
            "componentType" : 5126,
            "count" : 56,
            "type" : "VEC2"
        },
        {
            "bufferView" : 65,
            "componentType" : 5126,
            "count" : 56,
            "type" : "VEC2"
        },
        {
            "bufferView" : 66,
            "componentType" : 5123,
            "count" : 156,
            "type" : "SCALAR"
        },
        {
            "bufferView" : 67,
            "componentType" : 5126,
            "count" : 8,
            "max" : [
                0.3129124641418457,
                2.1139392852783203,
                0.12510395050048828
            ],
            "min" : [
                -0.3129134774208069,
                1.8860211372375488,
                -0.12510466575622559
            ],
            "type" : "VEC3"
        },
        {
            "bufferView" : 68,
            "componentType" : 5126,
            "count" : 8,
            "type" : "VEC3"
        },
        {
            "bufferView" : 69,
            "componentType" : 5126,
            "count" : 8,
            "type" : "VEC2"
        },
        {
            "bufferView" : 70,
            "componentType" : 5126,
            "count" : 8,
            "type" : "VEC2"
        },
        {
            "bufferView" : 71,
            "componentType" : 5123,
            "count" : 12,
            "type" : "SCALAR"
        },
        {
            "bufferView" : 73,
            "componentType" : 5126,
            "count" : 8,
            "max" : [
                0.23479443788528442,
                2.1139392852783203,
                0.12864160537719727
            ],
            "min" : [
                -0.23479455709457397,
                1.8860211372375488,
                -0.12864136695861816
            ],
            "type" : "VEC3"
        },
        {
            "bufferView" : 74,
            "componentType" : 5126,
            "count" : 8,
            "type" : "VEC3"
        },
        {
            "bufferView" : 75,
            "componentType" : 5126,
            "count" : 8,
            "type" : "VEC2"
        },
        {
            "bufferView" : 76,
            "componentType" : 5126,
            "count" : 8,
            "type" : "VEC2"
        },
        {
            "bufferView" : 78,
            "componentType" : 5126,
            "count" : 8,
            "max" : [
                0.07830721139907837,
                2.1139392852783203,
                0.13147211074829102
            ],
            "min" : [
                -0.07830625772476196,
                1.8860211372375488,
                -0.13147187232971191
            ],
            "type" : "VEC3"
        },
        {
            "bufferView" : 79,
            "componentType" : 5126,
            "count" : 8,
            "type" : "VEC3"
        },
        {
            "bufferView" : 80,
            "componentType" : 5126,
            "count" : 8,
            "type" : "VEC2"
        },
        {
            "bufferView" : 81,
            "componentType" : 5126,
            "count" : 8,
            "type" : "VEC2"
        },
        {
            "bufferView" : 83,
            "componentType" : 5126,
            "count" : 8,
            "max" : [
                0.15658247470855713,
                2.1139392852783203,
                0.13076472282409668
            ],
            "min" : [
                -0.15658050775527954,
                1.8860211372375488,
                -0.13076448440551758
            ],
            "type" : "VEC3"
        },
        {
            "bufferView" : 84,
            "componentType" : 5126,
            "count" : 8,
            "type" : "VEC3"
        },
        {
            "bufferView" : 85,
            "componentType" : 5126,
            "count" : 8,
            "type" : "VEC2"
        },
        {
            "bufferView" : 86,
            "componentType" : 5126,
            "count" : 8,
            "type" : "VEC2"
        },
        {
            "bufferView" : 88,
            "componentType" : 5126,
            "count" : 8,
            "max" : [
                0.1565813422203064,
                2.1139392852783203,
                0.13076472282409668
            ],
            "min" : [
                -0.1565813422203064,
                1.8860211372375488,
                -0.13076448440551758
            ],
            "type" : "VEC3"
        },
        {
            "bufferView" : 89,
            "componentType" : 5126,
            "count" : 8,
            "type" : "VEC3"
        },
        {
            "bufferView" : 90,
            "componentType" : 5126,
            "count" : 8,
            "type" : "VEC2"
        },
        {
            "bufferView" : 91,
            "componentType" : 5126,
            "count" : 8,
            "type" : "VEC2"
        },
        {
            "bufferView" : 93,
            "componentType" : 5126,
            "count" : 8,
            "max" : [
                0.2347954511642456,
                2.1139392852783203,
                0.12864160537719727
            ],
            "min" : [
                -0.23479348421096802,
                1.8860211372375488,
                -0.12864136695861816
            ],
            "type" : "VEC3"
        },
        {
            "bufferView" : 94,
            "componentType" : 5126,
            "count" : 8,
            "type" : "VEC3"
        },
        {
            "bufferView" : 95,
            "componentType" : 5126,
            "count" : 8,
            "type" : "VEC2"
        },
        {
            "bufferView" : 96,
            "componentType" : 5126,
            "count" : 8,
            "type" : "VEC2"
        },
        {
            "bufferView" : 98,
            "componentType" : 5126,
            "count" : 8,
            "max" : [
                0.07830643653869629,
                2.1139392852783203,
                0.13147211074829102
            ],
            "min" : [
                -0.07830649614334106,
                1.8860211372375488,
                -0.13147187232971191
            ],
            "type" : "VEC3"
        },
        {
            "bufferView" : 99,
            "componentType" : 5126,
            "count" : 8,
            "type" : "VEC3"
        },
        {
            "bufferView" : 100,
            "componentType" : 5126,
            "count" : 8,
            "type" : "VEC2"
        },
        {
            "bufferView" : 101,
            "componentType" : 5126,
            "count" : 8,
            "type" : "VEC2"
        },
        {
            "bufferView" : 103,
            "componentType" : 5126,
            "count" : 8,
            "max" : [
                0.312913715839386,
                2.1139392852783203,
                0.12510395050048828
            ],
            "min" : [
                -0.31291383504867554,
                1.8860211372375488,
                -0.12510466575622559
            ],
            "type" : "VEC3"
        },
        {
            "bufferView" : 104,
            "componentType" : 5126,
            "count" : 8,
            "type" : "VEC3"
        },
        {
            "bufferView" : 105,
            "componentType" : 5126,
            "count" : 8,
            "type" : "VEC2"
        },
        {
            "bufferView" : 106,
            "componentType" : 5126,
            "count" : 8,
            "type" : "VEC2"
        }
    ],
    "bufferViews" : [
        {
            "buffer" : 0,
            "byteLength" : 15744,
            "byteOffset" : 0
        },
        {
            "buffer" : 0,
            "byteLength" : 15744,
            "byteOffset" : 15744
        },
        {
            "buffer" : 0,
            "byteLength" : 10496,
            "byteOffset" : 31488
        },
        {
            "buffer" : 0,
            "byteLength" : 10496,
            "byteOffset" : 41984
        },
        {
            "buffer" : 0,
            "byteLength" : 4200,
            "byteOffset" : 52480
        },
        {
            "buffer" : 0,
            "byteLength" : 27420,
            "byteOffset" : 56680
        },
        {
            "buffer" : 0,
            "byteLength" : 12432,
            "byteOffset" : 84100
        },
        {
            "buffer" : 0,
            "byteLength" : 12432,
            "byteOffset" : 96532
        },
        {
            "buffer" : 0,
            "byteLength" : 8288,
            "byteOffset" : 108964
        },
        {
            "buffer" : 0,
            "byteLength" : 8288,
            "byteOffset" : 117252
        },
        {
            "buffer" : 0,
            "byteLength" : 9744,
            "byteOffset" : 125540
        },
        {
            "buffer" : 0,
            "byteLength" : 6204,
            "byteOffset" : 135284
        },
        {
            "buffer" : 0,
            "byteLength" : 6204,
            "byteOffset" : 141488
        },
        {
            "buffer" : 0,
            "byteLength" : 4136,
            "byteOffset" : 147692
        },
        {
            "buffer" : 0,
            "byteLength" : 4136,
            "byteOffset" : 151828
        },
        {
            "buffer" : 0,
            "byteLength" : 2934,
            "byteOffset" : 155964
        },
        {
            "buffer" : 0,
            "byteLength" : 2592,
            "byteOffset" : 158900
        },
        {
            "buffer" : 0,
            "byteLength" : 2592,
            "byteOffset" : 161492
        },
        {
            "buffer" : 0,
            "byteLength" : 1728,
            "byteOffset" : 164084
        },
        {
            "buffer" : 0,
            "byteLength" : 1728,
            "byteOffset" : 165812
        },
        {
            "buffer" : 0,
            "byteLength" : 2280,
            "byteOffset" : 167540
        },
        {
            "buffer" : 0,
            "byteLength" : 7776,
            "byteOffset" : 169820
        },
        {
            "buffer" : 0,
            "byteLength" : 7776,
            "byteOffset" : 177596
        },
        {
            "buffer" : 0,
            "byteLength" : 5184,
            "byteOffset" : 185372
        },
        {
            "buffer" : 0,
            "byteLength" : 5184,
            "byteOffset" : 190556
        },
        {
            "buffer" : 0,
            "byteLength" : 7488,
            "byteOffset" : 195740
        },
        {
            "buffer" : 0,
            "byteLength" : 6288,
            "byteOffset" : 203228
        },
        {
            "buffer" : 0,
            "byteLength" : 6288,
            "byteOffset" : 209516
        },
        {
            "buffer" : 0,
            "byteLength" : 4192,
            "byteOffset" : 215804
        },
        {
            "buffer" : 0,
            "byteLength" : 4192,
            "byteOffset" : 219996
        },
        {
            "buffer" : 0,
            "byteLength" : 1728,
            "byteOffset" : 224188
        },
        {
            "buffer" : 0,
            "byteLength" : 2508,
            "byteOffset" : 225916
        },
        {
            "buffer" : 0,
            "byteLength" : 1440,
            "byteOffset" : 228424
        },
        {
            "buffer" : 0,
            "byteLength" : 1440,
            "byteOffset" : 229864
        },
        {
            "buffer" : 0,
            "byteLength" : 960,
            "byteOffset" : 231304
        },
        {
            "buffer" : 0,
            "byteLength" : 960,
            "byteOffset" : 232264
        },
        {
            "buffer" : 0,
            "byteLength" : 684,
            "byteOffset" : 233224
        },
        {
            "buffer" : 0,
            "byteLength" : 1152,
            "byteOffset" : 233908
        },
        {
            "buffer" : 0,
            "byteLength" : 1152,
            "byteOffset" : 235060
        },
        {
            "buffer" : 0,
            "byteLength" : 768,
            "byteOffset" : 236212
        },
        {
            "buffer" : 0,
            "byteLength" : 768,
            "byteOffset" : 236980
        },
        {
            "buffer" : 0,
            "byteLength" : 708,
            "byteOffset" : 237748
        },
        {
            "buffer" : 0,
            "byteLength" : 1536,
            "byteOffset" : 238456
        },
        {
            "buffer" : 0,
            "byteLength" : 1536,
            "byteOffset" : 239992
        },
        {
            "buffer" : 0,
            "byteLength" : 1024,
            "byteOffset" : 241528
        },
        {
            "buffer" : 0,
            "byteLength" : 1024,
            "byteOffset" : 242552
        },
        {
            "buffer" : 0,
            "byteLength" : 696,
            "byteOffset" : 243576
        },
        {
            "buffer" : 0,
            "byteLength" : 15672,
            "byteOffset" : 244272
        },
        {
            "buffer" : 0,
            "byteLength" : 15672,
            "byteOffset" : 259944
        },
        {
            "buffer" : 0,
            "byteLength" : 10448,
            "byteOffset" : 275616
        },
        {
            "buffer" : 0,
            "byteLength" : 10448,
            "byteOffset" : 286064
        },
        {
            "buffer" : 0,
            "byteLength" : 11352,
            "byteOffset" : 296512
        },
        {
            "buffer" : 0,
            "byteLength" : 16932,
            "byteOffset" : 307864
        },
        {
            "buffer" : 0,
            "byteLength" : 16932,
            "byteOffset" : 324796
        },
        {
            "buffer" : 0,
            "byteLength" : 11288,
            "byteOffset" : 341728
        },
        {
            "buffer" : 0,
            "byteLength" : 11288,
            "byteOffset" : 353016
        },
        {
            "buffer" : 0,
            "byteLength" : 11190,
            "byteOffset" : 364304
        },
        {
            "buffer" : 0,
            "byteLength" : 3516,
            "byteOffset" : 375496
        },
        {
            "buffer" : 0,
            "byteLength" : 3516,
            "byteOffset" : 379012
        },
        {
            "buffer" : 0,
            "byteLength" : 2344,
            "byteOffset" : 382528
        },
        {
            "buffer" : 0,
            "byteLength" : 2344,
            "byteOffset" : 384872
        },
        {
            "buffer" : 0,
            "byteLength" : 1494,
            "byteOffset" : 387216
        },
        {
            "buffer" : 0,
            "byteLength" : 672,
            "byteOffset" : 388712
        },
        {
            "buffer" : 0,
            "byteLength" : 672,
            "byteOffset" : 389384
        },
        {
            "buffer" : 0,
            "byteLength" : 448,
            "byteOffset" : 390056
        },
        {
            "buffer" : 0,
            "byteLength" : 448,
            "byteOffset" : 390504
        },
        {
            "buffer" : 0,
            "byteLength" : 312,
            "byteOffset" : 390952
        },
        {
            "buffer" : 0,
            "byteLength" : 96,
            "byteOffset" : 391264
        },
        {
            "buffer" : 0,
            "byteLength" : 96,
            "byteOffset" : 391360
        },
        {
            "buffer" : 0,
            "byteLength" : 64,
            "byteOffset" : 391456
        },
        {
            "buffer" : 0,
            "byteLength" : 64,
            "byteOffset" : 391520
        },
        {
            "buffer" : 0,
            "byteLength" : 24,
            "byteOffset" : 391584
        },
        {
            "buffer" : 0,
            "byteLength" : 20173,
            "byteOffset" : 391608
        },
        {
            "buffer" : 0,
            "byteLength" : 96,
            "byteOffset" : 411784
        },
        {
            "buffer" : 0,
            "byteLength" : 96,
            "byteOffset" : 411880
        },
        {
            "buffer" : 0,
            "byteLength" : 64,
            "byteOffset" : 411976
        },
        {
            "buffer" : 0,
            "byteLength" : 64,
            "byteOffset" : 412040
        },
        {
            "buffer" : 0,
            "byteLength" : 19474,
            "byteOffset" : 412104
        },
        {
            "buffer" : 0,
            "byteLength" : 96,
            "byteOffset" : 431580
        },
        {
            "buffer" : 0,
            "byteLength" : 96,
            "byteOffset" : 431676
        },
        {
            "buffer" : 0,
            "byteLength" : 64,
            "byteOffset" : 431772
        },
        {
            "buffer" : 0,
            "byteLength" : 64,
            "byteOffset" : 431836
        },
        {
            "buffer" : 0,
            "byteLength" : 20077,
            "byteOffset" : 431900
        },
        {
            "buffer" : 0,
            "byteLength" : 96,
            "byteOffset" : 451980
        },
        {
            "buffer" : 0,
            "byteLength" : 96,
            "byteOffset" : 452076
        },
        {
            "buffer" : 0,
            "byteLength" : 64,
            "byteOffset" : 452172
        },
        {
            "buffer" : 0,
            "byteLength" : 64,
            "byteOffset" : 452236
        },
        {
            "buffer" : 0,
            "byteLength" : 17357,
            "byteOffset" : 452300
        },
        {
            "buffer" : 0,
            "byteLength" : 96,
            "byteOffset" : 469660
        },
        {
            "buffer" : 0,
            "byteLength" : 96,
            "byteOffset" : 469756
        },
        {
            "buffer" : 0,
            "byteLength" : 64,
            "byteOffset" : 469852
        },
        {
            "buffer" : 0,
            "byteLength" : 64,
            "byteOffset" : 469916
        },
        {
            "buffer" : 0,
            "byteLength" : 23509,
            "byteOffset" : 469980
        },
        {
            "buffer" : 0,
            "byteLength" : 96,
            "byteOffset" : 493492
        },
        {
            "buffer" : 0,
            "byteLength" : 96,
            "byteOffset" : 493588
        },
        {
            "buffer" : 0,
            "byteLength" : 64,
            "byteOffset" : 493684
        },
        {
            "buffer" : 0,
            "byteLength" : 64,
            "byteOffset" : 493748
        },
        {
            "buffer" : 0,
            "byteLength" : 20248,
            "byteOffset" : 493812
        },
        {
            "buffer" : 0,
            "byteLength" : 96,
            "byteOffset" : 514060
        },
        {
            "buffer" : 0,
            "byteLength" : 96,
            "byteOffset" : 514156
        },
        {
            "buffer" : 0,
            "byteLength" : 64,
            "byteOffset" : 514252
        },
        {
            "buffer" : 0,
            "byteLength" : 64,
            "byteOffset" : 514316
        },
        {
            "buffer" : 0,
            "byteLength" : 19745,
            "byteOffset" : 514380
        },
        {
            "buffer" : 0,
            "byteLength" : 96,
            "byteOffset" : 534128
        },
        {
            "buffer" : 0,
            "byteLength" : 96,
            "byteOffset" : 534224
        },
        {
            "buffer" : 0,
            "byteLength" : 64,
            "byteOffset" : 534320
        },
        {
            "buffer" : 0,
            "byteLength" : 64,
            "byteOffset" : 534384
        },
        {
            "buffer" : 0,
            "byteLength" : 19136,
            "byteOffset" : 534448
        }
    ],
    "samplers" : [
        {
            "magFilter" : 9729,
            "minFilter" : 9987
        }
    ],
    "buffers" : [
        {
            "byteLength" : 553584,
            "uri" : "data:application/octet-stream;base64,"
        }
    ]
}
